<?xml version="1.0" encoding="utf-8"?>
<!-- Generator: Adobe Illustrator 27.0.0, SVG Export Plug-In . SVG Version: 6.00 Build 0)  -->
<svg version="1.1" id="Ebene_1" xmlns="http://www.w3.org/2000/svg" xmlns:xlink="http://www.w3.org/1999/xlink" x="0px" y="0px"
	 viewBox="0 0 2000 1200" style="enable-background:new 0 0 2000 1200;" xml:space="preserve">
<style type="text/css">
	.st0{fill:#d1d1d1;}
	.st1{fill:url(#SVGID_1_);}
	.st2{fill:url(#SVGID_00000005947492082745860570000003565946565515661500_);}
	.st3{fill:url(#SVGID_00000062887465999482328750000000255358123515773337_);}
	.st4{fill:url(#SVGID_00000129904303049151265890000014280851728318676632_);}
	.st5{fill:url(#SVGID_00000182517746142298691530000004520110667315751094_);}
	.st6{fill:url(#SVGID_00000025432345837920225790000017766578159478970046_);}
	.st7{fill:url(#SVGID_00000098209869602283155000000012703059956417772427_);}
</style>
<g>
	<path class="st0" d="M1632.18,436.774c0,55.05-17.261,59.317-41.661,59.317c-18.921,0-34.864-1.842-42.809-2.915V377.064
		c9.899-2.741,27.985-6.816,48.031-6.816C1618.443,370.248,1632.18,374.755,1632.18,436.774 M1596.708,330.966
		c-16.14,0-33.367,3.104-49.312,8.909v-76.888c0-5.997-4.835-10.779-10.761-10.779h-20.396c-5.96,0-10.78,4.782-10.78,10.779
		v244.309c0,10.872,5.808,17.785,17.749,20.93c11.104,3.012,34.658,7.985,67.83,7.985c59.297,0,84.568-30.773,84.568-103.115
		C1675.605,385.558,1666.654,330.966,1596.708,330.966"/>
	<path class="st0" d="M1844.344,498.796h-0.032l0.032-0.033V498.796z M1858.574,510.749l-1.389-8.571
		c-1.027-6.161-5.948-9.855-12.842-9.855l-5.609,0.419c-8.366,0.962-27.909,3.071-45.904,3.558h-2.727
		c-27.281,0-38.657-9.134-38.657-65.708c0-57.645,16.479-62.086,39.806-62.086c8.19,0,28.563,1.935,40.728,3.067
		c4.803,0.431,8.536,0.762,10.187,0.864l1.747,0.076c10.291,0,12.731-6.884,13.299-9.878c0.534-2.814,0.866-4.764,1.33-8.344
		c0.417-2.565,1.708-10.327-6.669-14.633c-6.206-3.155-28.874-9.699-59.49-9.699c-58.483,0-84.582,31.24-84.582,101.304
		c0,74.558,24.104,103.541,85.938,103.541c22.002,0,42.519-3.709,53.109-7.39C1858.623,523.293,1859.739,516.188,1858.574,510.749"
		/>
	<path class="st0" d="M1388.717,375.68h-54.883v-68.321h48.9c35.226,0,39.07,23.647,39.07,33.842
		C1421.805,360.52,1407.268,375.68,1388.717,375.68 M1429.268,455.191c0,25.63-12.879,37.599-40.551,37.599h-54.883v-77.918h54.883
		C1418.603,414.873,1429.268,435.697,1429.268,455.191 M1440.59,393.048c11.619-8.617,25.005-24.966,25.005-54.906
		c0-43.33-30.401-70.347-79.347-70.347h-82.7c-6.466,0-11.687,5.264-11.687,11.673v241.391c0,6.417,5.221,11.642,11.687,11.642
		h96.159c41.914,0,73.549-32.389,73.549-75.368C1473.256,428.035,1461.02,404.606,1440.59,393.048"/>
	<g>
		<path class="st0" d="M1291.861,606.817h35.847c19.723,0,29.565,8.262,29.565,24.697c0,6.509-1.058,11.583-3.153,15.29
			c-2.107,3.668-5.25,6.518-9.474,8.511c4.973,1.738,8.834,4.363,11.563,7.932c2.712,3.524,4.08,8.613,4.08,15.344
			c0,10.037-2.633,17.207-7.883,21.603c-5.265,4.32-12.872,6.483-22.82,6.483h-37.726V606.817z M1327.301,617.036h-24.535v33.988
			h25.532c6.118,0,10.598-1.506,13.41-4.518c2.812-3.027,4.235-7.545,4.235-13.557c0-5.632-1.516-9.725-4.508-12.196
			C1338.412,618.273,1333.707,617.036,1327.301,617.036z M1328.45,661.073h-25.685v35.409h26.398c6.408,0,11.291-1.362,14.714-4.209
			c3.374-2.816,5.062-7.571,5.062-14.278C1348.939,666.722,1342.111,661.073,1328.45,661.073z"/>
		<path class="st0" d="M1406.051,698.375c3.164,0,6.934-0.095,11.339-0.298c4.403-0.182,7.985-0.374,10.761-0.54l4.18-0.463
			l0.284,8.773c-10.821,1.507-20.101,2.29-27.851,2.29c-10.43,0-17.781-3.018-22.084-8.975c-4.312-5.973-6.441-15.273-6.441-27.893
			c0-25.177,10.023-37.753,30.087-37.753c9.673,0,16.913,2.702,21.676,8.108c4.785,5.4,7.202,13.899,7.202,25.487l-0.584,8.322
			h-47.505c0.116,7.8,1.561,13.623,4.368,17.34C1394.317,696.482,1399.171,698.375,1406.051,698.375z M1387.114,666.677h37.319
			c0-8.506-1.423-14.6-4.303-18.174c-2.888-3.573-7.479-5.359-13.806-5.359C1393.528,643.144,1387.114,650.976,1387.114,666.677z"/>
		<path class="st0" d="M1453.973,706.677v-71.734h10.76v9.492c7.357-5.567,15.686-9.203,24.963-10.917v11.22
			c-4.016,0.75-8.113,1.947-12.256,3.545c-4.16,1.641-7.338,3.149-9.54,4.479l-3.167,1.853v52.062H1453.973z"/>
		<path class="st0" d="M1550.812,634.942h10.621v71.734h-10.621v-4.578c-7.449,4.047-14.549,6.039-21.238,6.039
			c-9.742,0-16.211-2.537-19.43-7.64c-3.195-5.028-4.811-14.407-4.811-28.112v-37.443h10.617v37.301
			c0,10.44,0.922,17.412,2.738,20.963c1.812,3.558,5.965,5.312,12.477,5.312c2.766,0,5.811-0.457,9.106-1.34
			c3.301-0.934,5.907-1.836,7.837-2.682l2.703-1.291V634.942z"/>
		<path class="st0" d="M1597.881,644.737v61.94h-10.627v-61.94h-9.041v-9.795h9.041v-6.421c0-10.146,1.405-17.06,4.236-20.674
			c2.823-3.655,7.826-5.46,14.99-5.46l14.502,1.013l-0.145,8.898c-5.361-0.216-9.447-0.296-12.222-0.296
			c-4.101,0-6.923,1.147-8.456,3.413c-1.516,2.321-2.279,6.691-2.279,13.242v6.284h20.955v9.795H1597.881z"/>
		<path class="st0" d="M1684.091,636.253l-0.287,9.316c-10.608-1.501-18.969-2.283-25.095-2.283
			c-10.338,0-15.506,3.574-15.506,10.754c0,3.358,1.148,5.71,3.463,7.178c2.279,1.411,6.973,2.635,14.055,3.717
			c9.828,1.549,16.623,3.734,20.291,6.542c3.669,2.816,5.527,7.56,5.527,14.278c0,8.025-2.367,13.801-7.104,17.215
			c-4.716,3.43-11.688,5.168-20.854,5.168c-2.68,0-6.139-0.237-10.368-0.734c-4.193-0.494-7.722-0.899-10.585-1.258l-4.312-0.75
			l0.58-9.303c10.887,1.61,18.784,2.426,23.666,2.426c6.205,0,10.771-0.895,13.713-2.648c2.895-1.771,4.346-5.025,4.346-9.669
			c0-3.668-1.164-6.205-3.51-7.611c-2.338-1.435-7.192-2.758-14.549-3.893c-9.365-1.441-15.936-3.477-19.646-6.157
			c-3.74-2.68-5.598-7.362-5.598-14.07c0-7.259,2.438-12.569,7.385-15.938c4.921-3.351,11.063-5.016,18.417-5.016
			c3.177,0,6.942,0.237,11.278,0.74c4.357,0.463,7.915,0.888,10.673,1.274L1684.091,636.253z"/>
	</g>
	<g>
		<path class="st0" d="M1323.569,756.156c9.667,0,16.448,2.768,20.376,8.282c3.901,5.502,5.879,14.739,5.879,27.756
			c0,14.336-2.409,24.347-7.244,30.049c-4.828,5.675-13.683,8.537-26.613,8.537c-2.578,0-5.873-0.12-9.902-0.424
			c-4.018-0.303-7.364-0.541-10.04-0.701l-4.163-0.453V726.31h10.764v34.594C1309.81,757.737,1316.764,756.156,1323.569,756.156z
			 M1315.815,821.167c9.368,0,15.573-2.146,18.601-6.388c3-4.269,4.508-11.687,4.508-22.31c0-9.552-1.172-16.355-3.525-20.381
			c-2.325-4.014-6.602-6.022-12.824-6.022c-2.787,0-5.846,0.303-9.186,0.938c-3.349,0.623-5.978,1.262-7.896,1.947l-2.868,0.988
			v50.367C1308.848,820.863,1313.244,821.167,1315.815,821.167z"/>
		<path class="st0" d="M1369.045,741.368v-12.459h10.623v12.459H1369.045z M1369.045,829.336v-71.741h10.623v71.741H1369.045z"/>
		<path class="st0" d="M1402.045,829.336V726.31h10.631v103.026H1402.045z"/>
		<path class="st0" d="M1490.135,728.909v100.427h-10.773v-4.731c-7.363,4.125-14.608,6.176-21.783,6.176
			c-3.834,0-7.16-0.502-9.975-1.492c-2.816-1.039-5.5-2.783-8.021-5.312c-2.55-2.553-4.452-6.333-5.743-11.44
			c-1.312-5.042-1.952-11.285-1.952-18.753c0-12.913,2.326-22.405,6.971-28.51c4.631-6.061,12.313-9.117,23.016-9.117
			c5.447,0,11.299,0.632,17.487,1.884v-29.131H1490.135z M1459.004,820.863c2.87,0,6.004-0.429,9.398-1.357
			c3.397-0.892,6.05-1.776,7.96-2.646l2.999-1.291v-48.052c-7.921-1.069-13.555-1.572-16.91-1.572
			c-7.275,0-12.399,2.211-15.342,6.739c-2.98,4.484-4.455,11.616-4.455,21.363c0,5.543,0.426,10.176,1.291,13.848
			c0.842,3.66,2.127,6.421,3.81,8.182c1.646,1.787,3.364,3.016,5.073,3.75C1454.562,820.515,1456.627,820.863,1459.004,820.863z"/>
		<path class="st0" d="M1558.159,757.595h10.578v71.741h-10.578v-4.595c-7.487,4.037-14.556,6.039-21.257,6.039
			c-9.752,0-16.217-2.531-19.445-7.634c-3.193-5.024-4.793-14.407-4.793-28.102v-37.45h10.625v37.313
			c0,10.425,0.887,17.406,2.729,20.947c1.807,3.551,5.959,5.311,12.477,5.311c2.762,0,5.807-0.463,9.088-1.34
			c3.299-0.916,5.924-1.832,7.831-2.68l2.746-1.292V757.595z"/>
		<path class="st0" d="M1602.763,829.336h-10.738v-71.741h10.738v5.217c7.655-4.405,15.075-6.655,22.255-6.655
			c9.539,0,15.951,2.602,19.207,7.849c3.254,5.218,4.891,14.566,4.891,28.047v37.284h-10.627v-37.411
			c0-10.066-0.998-16.927-2.93-20.596c-1.975-3.701-6.171-5.537-12.553-5.537c-3.078,0-6.287,0.435-9.626,1.356
			c-3.358,0.903-5.928,1.836-7.765,2.792l-2.853,1.277V829.336z"/>
		<path class="st0" d="M1697.444,863.062c-11.47,0-19.493-1.54-24.042-4.677c-4.53-3.109-6.797-8.757-6.797-16.972
			c0-3.942,0.849-7.115,2.604-9.558c1.736-2.439,4.665-5.168,8.869-8.264c-2.68-1.707-4.004-5.018-4.004-9.875
			c0-0.797,0.363-2.121,1.219-4.022c0.806-1.913,1.588-3.602,2.355-5.008l1.146-2.312c-7.467-3.453-11.184-10.673-11.184-21.66
			c0-16.364,8.889-24.56,26.706-24.56c2.073,0,4.372,0.16,6.86,0.446c2.514,0.303,4.451,0.625,5.895,0.992l2.146,0.445l20.947-0.583
			v9.167l-13.187-0.254c3.137,3.349,4.731,8.103,4.731,14.346c0,9.096-2.234,15.389-6.605,18.924
			c-4.41,3.557-11.484,5.328-21.236,5.328c-2.598,0-4.942-0.209-7.033-0.584c-1.73,4.214-2.592,6.942-2.592,8.152
			c0,2.993,0.899,4.818,2.735,5.553c1.804,0.701,6.691,1.055,14.638,1.055c10.52,0,17.778,1.449,21.799,4.297
			c4.021,2.91,6.033,8.481,6.033,16.81C1729.449,855.452,1718.789,863.062,1697.444,863.062z M1700.9,828.651l-15.629-0.766
			c-3.085,2.312-5.186,4.339-6.349,6.045c-1.142,1.764-1.69,3.926-1.69,6.612c0,5.075,1.402,8.576,4.211,10.553
			c2.824,1.94,8.2,2.938,16.154,2.938c7.275,0,12.586-1.088,15.912-3.154c3.365-2.113,5.024-5.518,5.024-10.184
			c0-5.178-1.203-8.472-3.651-9.916C1712.434,829.336,1707.784,828.651,1700.9,828.651z M1694.013,796.375
			c6.111,0,10.468-1.187,13.06-3.54c2.577-2.33,3.852-6.383,3.852-12.119c0-6.133-1.203-10.314-3.635-12.488
			c-2.428-2.194-6.764-3.295-12.972-3.295c-5.489,0-9.499,1.195-12.059,3.654c-2.609,2.449-3.901,6.477-3.901,12.129
			c0,5.323,1.193,9.295,3.532,11.832C1684.221,795.052,1688.287,796.375,1694.013,796.375z"/>
		<path class="st0" d="M1795.592,758.903l-0.303,9.324c-10.596-1.51-18.985-2.282-25.112-2.282
			c-10.305,0-15.505,3.563-15.505,10.745c0,3.364,1.162,5.702,3.476,7.18c2.3,1.418,6.954,2.632,14.054,3.724
			c9.845,1.54,16.617,3.725,20.324,6.532c3.662,2.811,5.489,7.577,5.489,14.295c0,8.009-2.351,13.799-7.067,17.197
			c-4.76,3.432-11.725,5.162-20.882,5.162c-2.69,0-6.161-0.241-10.337-0.727c-4.229-0.479-7.754-0.893-10.61-1.275l-4.324-0.75
			l0.583-9.282c10.896,1.61,18.785,2.421,23.658,2.421c6.232,0,10.811-0.884,13.705-2.646c2.945-1.771,4.38-5.02,4.38-9.669
			c0-3.651-1.165-6.189-3.509-7.601c-2.365-1.445-7.213-2.77-14.576-3.9c-9.355-1.438-15.912-3.486-19.646-6.176
			c-3.74-2.664-5.598-7.337-5.598-14.054c0-7.259,2.455-12.571,7.369-15.937c4.93-3.352,11.096-5.028,18.475-5.028
			c3.144,0,6.883,0.241,11.23,0.749c4.373,0.457,7.931,0.888,10.695,1.264L1795.592,758.903z"/>
	</g>
	<g>
		<path class="st0" d="M1321.525,872.06c1.92,0,4.508,0.215,7.787,0.572c3.225,0.387,5.986,0.8,8.287,1.152l3.457,0.43l-0.307,9.324
			c-7.658-0.852-13.301-1.269-16.918-1.269c-8.145,0-13.657,1.874-16.583,5.68c-2.896,3.766-4.368,10.479-4.368,20.132
			c0,10.905,1.36,18.383,4.092,22.447c2.744,4.07,8.344,6.111,16.859,6.111l17.059-1.291l0.453,9.333
			c-9.013,1.329-15.662,2.008-19.941,2.008c-11.309,0-19.031-2.88-23.256-8.544c-4.195-5.709-6.285-15.719-6.285-30.064
			c0-13.001,2.271-22.255,6.828-27.756C1303.195,874.82,1310.833,872.06,1321.525,872.06z"/>
		<path class="st0" d="M1384.103,936.92c3.147,0,6.917-0.104,11.323-0.28c4.404-0.193,8.01-0.385,10.777-0.557l4.148-0.447
			l0.286,8.775c-10.808,1.484-20.088,2.279-27.843,2.279c-10.412,0-17.768-3.023-22.074-8.974
			c-4.32-5.984-6.463-15.289-6.463-27.893c0-25.177,10.045-37.763,30.117-37.763c9.651,0,16.873,2.712,21.676,8.118
			c4.788,5.395,7.154,13.904,7.154,25.487l-0.565,8.306h-47.469c0.087,7.832,1.571,13.64,4.366,17.364
			C1372.357,935.045,1377.217,936.92,1384.103,936.92z M1365.171,905.229h37.287c0-8.511-1.409-14.606-4.295-18.18
			c-2.88-3.583-7.454-5.345-13.788-5.345C1371.568,881.704,1365.171,889.538,1365.171,905.229z"/>
		<path class="st0" d="M1442.766,945.239h-10.755v-71.752h10.755v5.207c7.664-4.402,15.094-6.635,22.226-6.635
			c9.581,0,16.011,2.586,19.257,7.842c3.254,5.207,4.854,14.557,4.854,28.036v37.302h-10.609V907.82
			c0-10.083-0.977-16.937-2.932-20.604c-1.951-3.686-6.135-5.512-12.566-5.512c-3.077,0-6.295,0.422-9.617,1.347
			c-3.35,0.893-5.935,1.835-7.732,2.775l-2.879,1.295V945.239z"/>
		<path class="st0" d="M1548.109,883.276h-22.701v33.43c0,8.191,0.576,13.602,1.727,16.121c1.145,2.521,3.999,3.812,8.626,3.812
			l12.763-0.717l0.558,9.316c-6.313,1.053-11.14,1.587-14.473,1.587c-7.591,0-12.788-1.868-15.653-5.515
			c-2.856-3.699-4.305-10.6-4.305-20.729v-37.307h-10.193v-9.789h10.193v-21.935h10.758v21.935h22.701V883.276z"/>
		<path class="st0" d="M1590.404,936.92c3.152,0,6.916-0.104,11.32-0.28c4.404-0.193,8.01-0.385,10.784-0.557l4.164-0.447
			l0.255,8.775c-10.799,1.484-20.061,2.279-27.82,2.279c-10.433,0-17.785-3.023-22.109-8.974
			c-4.291-5.984-6.433-15.289-6.433-27.893c0-25.177,10.042-37.763,30.12-37.763c9.635,0,16.902,2.712,21.664,8.118
			c4.787,5.395,7.147,13.904,7.147,25.487l-0.544,8.306h-47.499c0.118,7.832,1.571,13.64,4.391,17.364
			C1578.652,935.045,1583.514,936.92,1590.404,936.92z M1571.454,905.229h37.321c0-8.511-1.444-14.606-4.308-18.18
			c-2.872-3.583-7.48-5.345-13.782-5.345C1577.85,881.704,1571.454,889.538,1571.454,905.229z"/>
		<path class="st0" d="M1638.338,945.239v-71.752h10.723v9.485c7.385-5.553,15.703-9.189,24.98-10.913v11.217
			c-4.027,0.756-8.088,1.961-12.251,3.558c-4.181,1.634-7.363,3.14-9.564,4.479l-3.165,1.837v52.089H1638.338z"/>
	</g>
	<rect x="1291.861" y="564.735" class="st0" width="68.356" height="9.896"/>
</g>
<linearGradient id="SVGID_1_" gradientUnits="userSpaceOnUse" x1="229.27" y1="898.8547" x2="618.5087" y2="787.7281" gradientTransform="matrix(-0.6986 0.7155 -0.7155 -0.6986 1800.5811 841.667)">
	<stop  offset="0" style="stop-color:#0072BC"/>
	<stop  offset="0.0047" style="stop-color:#0072BC;stop-opacity:0.9991"/>
	<stop  offset="0.1502" style="stop-color:#0084CB;stop-opacity:0.97"/>
	<stop  offset="0.3005" style="stop-color:#0093D8;stop-opacity:0.9399"/>
	<stop  offset="0.4565" style="stop-color:#009EE1;stop-opacity:0.9087"/>
	<stop  offset="0.6196" style="stop-color:#00A6E8;stop-opacity:0.8761"/>
	<stop  offset="0.794" style="stop-color:#00ABED;stop-opacity:0.8412"/>
	<stop  offset="1" style="stop-color:#00AEEF;stop-opacity:0.8"/>
</linearGradient>
<polygon class="st1" points="1172.14,472.241 864.034,802.882 711.007,580.735 754.434,409.145 "/>
<linearGradient id="SVGID_00000158023024216538047930000002115168744792583347_" gradientUnits="userSpaceOnUse" x1="264.8922" y1="735.3807" x2="593.2975" y2="561.0746" gradientTransform="matrix(-0.1139 0.9935 -0.9935 -0.1139 1359.2339 458.508)">
	<stop  offset="0" style="stop-color:#0072BC"/>
	<stop  offset="1" style="stop-color:#2E3192;stop-opacity:0.85"/>
</linearGradient>
<polygon style="fill:url(#SVGID_00000158023024216538047930000002115168744792583347_);" points="823.436,668.669 988.045,895.317 
	465.351,1034.364 617.648,623.699 "/>
<linearGradient id="SVGID_00000154417520469415729810000007727132181056365214_" gradientUnits="userSpaceOnUse" x1="567.1279" y1="738.7483" x2="623.7192" y2="797.3503" gradientTransform="matrix(0.9343 -0.3564 0.3564 0.9343 -270.4794 394.3491)">
	<stop  offset="0" style="stop-color:#000000;stop-opacity:0"/>
	<stop  offset="1" style="stop-color:#000000;stop-opacity:0.3"/>
</linearGradient>
<polygon style="fill:url(#SVGID_00000154417520469415729810000007727132181056365214_);" points="517.969,892.481 508.528,917.937 
	612.632,882.479 "/>
<linearGradient id="SVGID_00000052819345364419320150000005822797934167495342_" gradientUnits="userSpaceOnUse" x1="903.6321" y1="220.7273" x2="1209.8231" y2="58.2118" gradientTransform="matrix(-0.9963 -0.0856 0.0856 -0.9963 1470.8875 853.0625)">
	<stop  offset="0" style="stop-color:#8DC63F;stop-opacity:0.85"/>
	<stop  offset="0.4283" style="stop-color:#8BC63F;stop-opacity:0.9142"/>
	<stop  offset="0.5826" style="stop-color:#84C441;stop-opacity:0.9374"/>
	<stop  offset="0.6926" style="stop-color:#77C043;stop-opacity:0.9539"/>
	<stop  offset="0.7815" style="stop-color:#63BC46;stop-opacity:0.9672"/>
	<stop  offset="0.8576" style="stop-color:#42B649;stop-opacity:0.9786"/>
	<stop  offset="0.925" style="stop-color:#00AF4D;stop-opacity:0.9888"/>
	<stop  offset="0.9845" style="stop-color:#00A850;stop-opacity:0.9977"/>
	<stop  offset="1" style="stop-color:#00A651"/>
</linearGradient>
<polygon style="fill:url(#SVGID_00000052819345364419320150000005822797934167495342_);" points="612.632,882.479 408.236,904.077 
	140.642,410.24 601.483,569.144 "/>
<linearGradient id="SVGID_00000042711122786196650490000014148438236211870374_" gradientUnits="userSpaceOnUse" x1="-22.5213" y1="538.9315" x2="207.1541" y2="417.0279" gradientTransform="matrix(0.6625 -0.7491 -0.7491 -0.6625 696.0169 787.1356)">
	<stop  offset="0" style="stop-color:#2E3192"/>
	<stop  offset="0.3307" style="stop-color:#5E2D91;stop-opacity:0.9669"/>
	<stop  offset="0.6256" style="stop-color:#7B2A90;stop-opacity:0.9374"/>
	<stop  offset="0.8583" style="stop-color:#8C288F;stop-opacity:0.9142"/>
	<stop  offset="1" style="stop-color:#92278F;stop-opacity:0.9"/>
</linearGradient>
<polygon style="fill:url(#SVGID_00000042711122786196650490000014148438236211870374_);" points="426.694,606.015 566.332,497.485 
	456.779,164.669 269.936,439.516 "/>
<linearGradient id="SVGID_00000127005284115349353840000008639912615341621166_" gradientUnits="userSpaceOnUse" x1="472.0913" y1="562.1746" x2="503.7144" y2="594.9211">
	<stop  offset="0" style="stop-color:#000000;stop-opacity:0.3"/>
	<stop  offset="1" style="stop-color:#000000;stop-opacity:0"/>
</linearGradient>
<polygon style="fill:url(#SVGID_00000127005284115349353840000008639912615341621166_);" points="549.118,551.075 513.311,538.718 
	426.694,606.015 426.688,606.021 "/>
<linearGradient id="SVGID_00000147210716037097916520000009914634644968596660_" gradientUnits="userSpaceOnUse" x1="821.2695" y1="670.7615" x2="906.2117" y2="758.7217">
	<stop  offset="0" style="stop-color:#000000;stop-opacity:0.3"/>
	<stop  offset="1" style="stop-color:#000000;stop-opacity:0"/>
</linearGradient>
<polygon style="fill:url(#SVGID_00000147210716037097916520000009914634644968596660_);" points="915.398,747.797 895.999,768.584 
	823.436,668.669 "/>
</svg>
